<svg id="Layer_1" data-name="Layer 1" xmlns="http://www.w3.org/2000/svg" xmlns:xlink="http://www.w3.org/1999/xlink" viewBox="0 0 328.94 324.34"><defs><style>.cls-1,.cls-5{fill:none;}.cls-1,.cls-3,.cls-4,.cls-5,.cls-6,.cls-7,.cls-8{stroke-miterlimit:10;}.cls-1{stroke-width:20px;stroke:url(#Orange_Yellow);}.cls-2,.cls-4{fill:#fff;}.cls-3{fill:url(#Orange_Yellow-2);stroke:url(#Orange_Yellow-3);}.cls-4{stroke:#231f20;}.cls-5{stroke:#6dcbd8;}.cls-5,.cls-7{stroke-linecap:round;stroke-width:8px;}.cls-6{fill:url(#Orange_Yellow-4);stroke:url(#Orange_Yellow-5);}.cls-7{fill:url(#Orange_Yellow-6);stroke:url(#Orange_Yellow-7);}.cls-8{fill:url(#Orange_Yellow-8);stroke:url(#Orange_Yellow-9);}</style><linearGradient id="Orange_Yellow" y1="162.17" x2="328.94" y2="162.17" gradientUnits="userSpaceOnUse"><stop offset="0" stop-color="#fff33b"/><stop offset="0.04" stop-color="#fee72e"/><stop offset="0.12" stop-color="#fed51b"/><stop offset="0.2" stop-color="#fdca10"/><stop offset="0.28" stop-color="#fdc70c"/><stop offset="0.67" stop-color="#f3903f"/><stop offset="0.89" stop-color="#ed683c"/><stop offset="1" stop-color="#e93e3a"/></linearGradient><linearGradient id="Orange_Yellow-2" x1="197.74" y1="241.59" x2="432.53" y2="241.59" xlink:href="#Orange_Yellow"/><linearGradient id="Orange_Yellow-3" x1="197.24" y1="241.59" x2="433.03" y2="241.59" xlink:href="#Orange_Yellow"/><linearGradient id="Orange_Yellow-4" x1="167.69" y1="93.22" x2="236.13" y2="93.22" xlink:href="#Orange_Yellow"/><linearGradient id="Orange_Yellow-5" x1="167.19" y1="93.22" x2="236.63" y2="93.22" xlink:href="#Orange_Yellow"/><linearGradient id="Orange_Yellow-6" x1="155.08" y1="146.28" x2="182.35" y2="146.28" xlink:href="#Orange_Yellow"/><linearGradient id="Orange_Yellow-7" x1="151.08" y1="146.28" x2="186.35" y2="146.28" xlink:href="#Orange_Yellow"/><linearGradient id="Orange_Yellow-8" x1="203.7" y1="148.06" x2="215.43" y2="148.06" xlink:href="#Orange_Yellow"/><linearGradient id="Orange_Yellow-9" x1="203.2" y1="148.06" x2="215.93" y2="148.06" xlink:href="#Orange_Yellow"/></defs><ellipse class="cls-1" cx="164.47" cy="162.17" rx="154.47" ry="152.17"/><circle class="cls-2" cx="164.47" cy="162.17" r="146.39"/><path class="cls-3" d="M325.68,357.33c79.81-8.3,119.23-108.84,103.4-127.41-17.35-20.37-107,50.62-137.58,22-29.06-27.17,27.3-114.48,10.17-125.44-16.72-10.7-111.85,46.2-103.4,127.41A116,116,0,0,0,325.68,357.33Z" transform="translate(-150.66 -75)"/><path class="cls-4" d="M333.1,180.27" transform="translate(-150.66 -75)"/><path class="cls-5" d="M359.85,235.49" transform="translate(-150.66 -75)"/><circle class="cls-6" cx="201.91" cy="93.22" r="34.21"/><circle class="cls-7" cx="168.72" cy="146.28" r="13.64"/><circle class="cls-8" cx="209.57" cy="148.06" r="5.86"/></svg>